<?xml version="1.0" standalone="no"?><!DOCTYPE svg PUBLIC "-//W3C//DTD SVG 1.1//EN" "http://www.w3.org/Graphics/SVG/1.1/DTD/svg11.dtd"><svg t="1761287415466" class="icon" viewBox="0 0 1025 1024" version="1.1" xmlns="http://www.w3.org/2000/svg" p-id="4474" xmlns:xlink="http://www.w3.org/1999/xlink" width="32.03125" height="32"><path d="M937.008958 1007.935101L512.072972 583.426523 87.213142 1007.860499c-19.761826 19.736959-51.834578 19.878392-71.663235 0.074602-19.729187-19.7152-19.618838-51.815927 0.105687-71.568428L440.552725 511.932697 15.655594 87.461421c-19.76338-19.736959-19.724525-51.882758 0-71.590187 19.797573-19.77426 51.870325-19.74473 71.667897 0.037301l424.85983 424.433976L937.044705 15.908535c19.799127-19.782031 51.833024-19.782031 71.591741-0.037301 19.834874 19.819332 19.764934 51.741325-0.032638 71.515585L583.739315 511.836336l424.939095 424.500807c19.828657 19.782031 19.828657 51.815927 0.02953 71.552886-19.726079 19.848862-51.864108 19.848862-71.698982 0.045072z" fill="#ffffff" p-id="4475"></path></svg>